<?xml version="1.0" standalone="no"?>
<!DOCTYPE svg PUBLIC "-//W3C//DTD SVG 20010904//EN"
 "http://www.w3.org/TR/2001/REC-SVG-20010904/DTD/svg10.dtd">
<svg version="1.0" xmlns="http://www.w3.org/2000/svg"
 width="155.000000pt" height="155.000000pt" viewBox="0 0 155.000000 155.000000"
 preserveAspectRatio="xMidYMid meet">
<metadata>
Created by potrace 1.11, written by Peter Selinger 2001-2013
</metadata>
<g transform="translate(0.000000,155.000000) scale(0.100000,-0.100000)"
fill="#000000" stroke="none">
<path d="M194 1303 c-124 -151 -185 -302 -190 -478 -8 -251 89 -446 315 -631
l33 -28 -5 92 c-3 51 -4 92 -2 92 2 0 26 -16 55 -35 29 -19 56 -35 61 -35 6 0
7 32 4 76 l-5 75 27 -19 c51 -35 53 -35 48 -5 -9 59 -13 133 -7 133 4 0 18 -9
32 -20 14 -11 29 -20 34 -20 5 0 6 29 3 65 l-6 65 36 -27 36 -27 -5 81 -4 81
33 -25 c80 -61 195 -6 195 93 0 98 -136 150 -204 79 -13 -14 -26 -25 -29 -25
-3 0 -7 30 -8 67 -1 37 -5 71 -8 77 -4 5 -19 -6 -35 -24 -28 -34 -28 -34 -29
-10 -4 73 -7 101 -11 106 -3 3 -20 -7 -37 -21 -27 -24 -31 -25 -31 -8 -1 36
-13 138 -16 142 -2 3 -18 -8 -34 -24 l-30 -29 -1 30 c-1 56 -8 117 -15 123 -3
3 -30 -20 -60 -52 -52 -56 -54 -57 -55 -30 0 15 -2 37 -4 48 -2 11 -5 41 -6
68 -2 26 -6 47 -11 47 -4 0 -33 -30 -64 -67z m59 -28 c3 -27 6 -75 7 -105 l1
-55 22 30 c31 43 88 105 96 105 3 0 7 -32 9 -72 1 -40 5 -75 8 -78 3 -3 17 8
30 24 14 15 27 26 30 24 2 -3 7 -41 10 -84 4 -43 8 -81 10 -83 2 -2 15 11 30
29 34 40 42 29 45 -60 2 -62 3 -63 18 -40 9 13 24 33 33 44 17 21 17 20 19
-19 1 -22 2 -56 4 -75 1 -19 5 -82 9 -140 l7 -105 -36 35 -37 35 6 -79 6 -79
-22 19 c-13 10 -31 28 -41 39 -18 20 -19 18 -12 -75 l8 -95 -24 21 c-51 44
-52 43 -46 -45 5 -80 5 -81 -16 -70 -12 7 -42 27 -65 47 l-44 35 6 -92 c4 -50
3 -91 -2 -91 -13 0 -139 128 -171 173 -85 125 -121 234 -127 382 -6 193 48
344 184 513 19 23 36 41 38 40 1 -2 5 -25 7 -53z"/>
<path d="M1279 1320 c-1 -27 -3 -59 -4 -70 -1 -11 -3 -32 -4 -47 -1 -25 -3
-24 -54 30 -29 31 -57 57 -63 57 -5 0 -11 -32 -12 -72 -2 -40 -4 -73 -5 -75
-2 -1 -17 11 -35 28 -18 17 -32 24 -32 17 -1 -32 -13 -153 -16 -157 -2 -2 -16
8 -30 22 -15 15 -31 27 -35 27 -7 0 -15 -84 -10 -112 2 -16 -13 -7 -41 24 -24
27 -28 29 -29 12 -1 -10 -3 -35 -4 -54 -1 -19 -5 -80 -9 -135 -4 -55 -9 -131
-12 -169 l-6 -70 38 29 37 28 -5 -66 c-3 -37 -2 -67 1 -67 9 0 54 31 64 44 4
6 6 -28 4 -76 l-3 -87 32 19 c17 11 33 20 36 20 2 0 2 -31 0 -70 -2 -38 -1
-70 3 -70 12 0 49 22 87 52 l37 29 -5 -73 c-3 -40 -7 -78 -9 -85 -15 -47 74
14 157 105 271 303 261 721 -26 1030 -16 17 -34 32 -38 32 -4 0 -9 -22 -9 -50z
m147 -150 c90 -152 123 -335 90 -500 -20 -95 -69 -210 -117 -273 -41 -54 -161
-177 -172 -177 -4 0 -5 43 -1 96 l7 97 -36 -34 c-20 -19 -50 -43 -68 -53 l-32
-19 7 82 c7 89 6 90 -43 47 l-24 -21 6 94 6 93 -27 -24 c-51 -46 -61 -51 -56
-31 6 28 11 133 6 133 -3 0 -12 -8 -21 -18 -9 -9 -24 -23 -34 -31 -16 -13 -17
-12 -13 15 5 31 20 267 18 296 -1 32 16 29 38 -7 12 -20 24 -34 27 -32 2 3 7
34 10 69 3 34 7 65 9 67 2 2 19 -13 37 -33 l32 -38 1 29 c3 90 9 153 15 153 3
0 16 -11 29 -25 13 -14 26 -25 29 -25 4 0 8 33 9 72 2 40 6 75 8 78 5 5 39
-31 96 -102 l27 -33 2 60 c1 33 3 65 4 70 2 6 3 28 4 50 l2 40 40 -45 c22 -25
60 -79 85 -120z"/>
</g>
</svg>
